<?xml version="1.0" standalone="no"?>
<!DOCTYPE svg PUBLIC "-//W3C//DTD SVG 20010904//EN"
 "http://www.w3.org/TR/2001/REC-SVG-20010904/DTD/svg10.dtd">
<svg version="1.0" xmlns="http://www.w3.org/2000/svg"
 width="291.000000pt" height="199.000000pt" viewBox="0 0 291.000000 199.000000"
 preserveAspectRatio="xMidYMid meet">

<g transform="translate(0.000000,199.000000) scale(0.100000,-0.100000)"
fill="#000000" stroke="none">
<path d="M280 1876 c0 -9 18 -16 51 -20 60 -8 91 -35 110 -92 8 -28 13 -180
16 -521 6 -642 -4 -754 -89 -931 -47 -99 -126 -183 -212 -225 -112 -55 -27
-69 125 -21 236 74 387 215 453 425 39 121 46 235 46 749 0 459 1 483 20 519
25 50 62 79 117 92 25 7 43 17 43 25 0 12 -57 14 -340 14 -281 0 -340 -2 -340
-14z"/>
<path d="M1070 1877 c0 -8 23 -18 59 -25 45 -9 70 -22 106 -54 26 -23 201
-233 388 -467 590 -737 750 -936 761 -943 6 -4 32 -8 59 -8 l47 0 0 204 0 205
-202 249 c-112 137 -313 385 -447 551 l-245 301 -263 0 c-209 0 -263 -3 -263
-13z"/>
<path d="M2170 1876 c0 -9 19 -19 49 -26 126 -30 216 -191 237 -425 9 -102 43
-100 44 2 0 116 70 293 141 362 39 38 113 71 156 71 7 0 13 7 13 15 0 13 -42
15 -320 15 -268 0 -320 -2 -320 -14z"/>
<path d="M1410 922 c0 -48 -26 -193 -46 -250 -48 -144 -115 -218 -224 -245
-33 -9 -55 -20 -55 -28 0 -12 55 -14 325 -14 281 0 325 2 328 15 2 11 -12 19
-49 27 -28 7 -67 25 -86 39 -76 58 -133 195 -155 369 -8 67 -15 95 -25 95 -7
0 -13 -3 -13 -8z"/>
</g>
</svg>
