<svg version="1.1" id="Layer_1" xmlns="http://www.w3.org/2000/svg" xmlns:xlink="http://www.w3.org/1999/xlink" x="0px" y="0px"
	 width="100%" viewBox="0 0 1024 1024" enable-background="new 0 0 1024 1024" xml:space="preserve">
<path fill="#000000" opacity="1.000000" stroke="none" 
	d="
M655.717102,813.862793 
	C630.045044,824.679138 603.597595,831.303833 576.493835,835.124146 
	C544.985413,839.565308 513.534424,838.871643 482.056946,833.595703 
	C438.904724,826.362915 398.950806,811.037720 362.033051,787.805420 
	C315.160614,758.308594 279.083923,718.554504 252.717819,670.053406 
	C237.125214,641.370361 225.846680,611.018982 220.266602,578.675720 
	C215.628815,551.794373 214.633987,524.829834 216.482040,497.621216 
	C218.343994,470.207886 223.851074,443.661499 232.886154,417.765656 
	C242.892288,389.086578 256.871613,362.545227 274.786041,338.003723 
	C292.174683,314.182556 311.784363,292.482422 335.203278,274.483154 
	C377.322296,242.111389 423.949646,219.634338 476.656891,210.474579 
	C496.868561,206.962112 517.139282,204.397003 537.648865,204.773422 
	C588.411316,205.705078 636.542725,217.266541 681.414368,241.395584 
	C734.646423,270.020294 776.740784,310.490112 807.496338,362.358429 
	C829.120422,398.826874 842.919495,438.437195 848.022034,480.571808 
	C855.282227,540.522400 846.959839,598.327209 821.591248,653.462036 
	C801.257568,697.654053 772.348328,735.085388 734.916809,766.156738 
	C710.985474,786.021851 684.746582,801.827942 655.717102,813.862793 
M346.931915,724.552307 
	C362.125824,739.002136 379.430237,750.508789 397.543610,760.897156 
	C435.672791,782.764893 476.953552,794.008484 520.603394,796.509827 
	C540.552429,797.652954 560.474182,796.121704 580.273499,792.838257 
	C628.931091,784.769043 672.200073,764.829834 709.771301,733.171021 
	C755.777710,694.404297 785.598022,645.119629 800.386963,586.958008 
	C809.635498,550.585571 810.953979,513.626648 804.671082,476.573456 
	C795.153687,420.445892 770.575256,371.750854 731.132568,330.739716 
	C692.836853,290.921173 646.871948,264.433838 592.691711,252.649597 
	C562.191406,246.015747 531.485474,243.999390 500.458069,248.353546 
	C475.456726,251.862061 451.086761,257.862091 427.849152,267.727173 
	C372.680450,291.148041 329.063721,328.166931 297.782806,379.482513 
	C267.590546,429.012177 254.128754,482.597198 258.077301,540.586853 
	C259.910217,567.505981 265.355682,593.492615 275.157990,618.657715 
	C290.956116,659.215576 313.951935,694.820374 346.931915,724.552307 
z"/>
<path fill="#000000" opacity="1.000000" stroke="none" 
	d="
M507.343445,576.000122 
	C507.637146,594.177429 507.376251,611.753784 501.485474,628.780273 
	C488.360657,666.715332 462.006439,688.714966 422.136566,692.815613 
	C398.000549,695.297974 376.476898,687.041687 358.217285,671.012390 
	C344.600586,659.058838 334.711609,644.318420 327.350189,627.842712 
	C326.346069,625.595398 325.184387,623.320923 325.513550,620.339050 
	C330.179749,619.030945 335.019470,617.936340 339.678345,616.320435 
	C355.490753,610.835815 367.478912,601.318481 371.863312,584.351868 
	C373.365723,578.537964 373.554016,572.488770 373.559448,566.512512 
	C373.617859,502.185120 373.627594,437.857544 373.505707,373.530273 
	C373.497864,369.383789 374.777893,367.816864 378.885071,367.858185 
	C390.215881,367.972229 401.549286,367.912415 412.880890,367.823883 
	C416.821869,367.793121 418.413574,369.254578 418.406403,373.468201 
	C418.292725,440.128876 418.510345,506.790680 418.214935,573.450256 
	C418.108856,597.385864 410.616516,618.633911 391.920990,634.853210 
	C390.810822,635.816345 389.871307,636.976196 388.505951,638.407715 
	C395.000671,645.633789 403.140350,648.976624 412.291351,649.573547 
	C431.777710,650.844604 445.476807,641.437683 454.501282,624.913818 
	C460.160553,614.551636 462.694031,603.118408 462.719177,591.284180 
	C462.864410,522.958069 462.927551,454.631836 463.030243,386.305634 
	C463.032898,384.534119 462.516846,382.652191 464.569946,380.020020 
	C526.269409,446.385223 587.746704,512.511475 649.292725,578.711609 
	C652.241394,575.866211 651.630981,573.244141 651.615784,570.846130 
	C651.481628,549.687317 651.489563,528.529297 651.213379,507.368713 
	C650.833069,478.231445 651.496399,449.081757 651.551880,419.937103 
	C651.581055,404.625092 651.336609,389.311218 651.065002,374.000854 
	C650.990234,369.789795 652.535950,367.917084 656.882141,367.965820 
	C667.879150,368.089111 678.878845,367.959534 689.877441,367.961792 
	C696.915588,367.963226 697.281677,368.339813 697.283813,375.243622 
	C697.310425,461.569366 697.336609,547.895081 697.357422,634.220825 
	C697.361389,650.552490 697.351990,666.884155 697.318420,683.215820 
	C697.314697,685.019348 697.688416,686.892273 696.679626,688.628845 
	C694.367615,689.679260 693.348816,687.738525 692.184387,686.507324 
	C668.834045,661.816833 645.563721,637.050720 622.185486,612.386780 
	C599.376282,588.323181 576.439636,564.380432 553.607666,540.338379 
	C542.021362,528.138000 530.567749,515.811768 518.997559,503.596039 
	C516.052917,500.487091 513.382690,497.037292 509.580536,494.825409 
	C506.415009,496.404541 507.400574,499.214050 507.393982,501.510681 
	C507.323029,526.173645 507.346039,550.836914 507.343445,576.000122 
z"/>
</svg>